<svg width="66" height="109" viewBox="0 0 66 109" fill="none" xmlns="http://www.w3.org/2000/svg">
<path d="M48.6518 13.4163C45.9985 16.3304 44.5307 20.1197 44.5335 24.0481V54.8404C44.5361 57.999 44.1143 61.1439 43.2791 64.1917C43.1887 64.5201 43.0939 64.8484 42.9969 65.1636C41.3749 70.4488 38.53 75.2839 34.6898 79.2825C34.357 79.6284 34.0285 79.9698 33.6713 80.3048C31.522 82.3721 29.1201 84.1635 26.5217 85.6371C24.8623 86.5773 23.1289 87.3826 21.3386 88.045C21.0895 88.1391 20.8404 88.2289 20.5846 88.3164C18.5119 89.0072 16.3189 89.2699 14.1402 89.0884C11.9615 88.907 9.84314 88.2851 7.91532 87.2611C5.9875 86.2371 4.29089 84.8326 2.92972 83.1338C1.56855 81.435 0.571559 79.4778 0 77.3825L3.22317 74.1822L12.11 65.3628C11.3198 68.4252 11.6196 71.6645 12.9587 74.5326C14.2977 77.4007 16.5937 79.7213 19.4581 81.1015C21.7597 82.196 24.5287 82.9469 27.1214 82.404C30.2894 81.7473 31.9473 79.2431 33.248 76.5069C34.2112 74.4727 34.7067 72.2512 34.6987 70.0034V41.1287C34.6965 35.7239 35.9414 30.3904 38.338 25.5376C40.7345 20.6848 44.219 16.4417 48.5239 13.1339L48.6518 13.4163ZM48.46 13.0047L28.2016 15.6556L27.139 25.4425C28.9751 23.5319 30.9896 21.7985 33.1554 20.2656C33.4494 20.0583 33.7433 19.8548 34.0373 19.6548C34.2842 19.4907 34.5289 19.3287 34.7802 19.1689C34.79 19.1621 34.8003 19.1562 34.8111 19.1514C35.0698 18.9836 35.3321 18.8194 35.5982 18.6589L35.704 18.5932C35.9531 18.4443 36.2044 18.2933 36.458 18.1554C37.5941 17.5002 38.7611 16.8989 39.9589 16.3517C40.1573 16.2597 40.358 16.1678 40.5608 16.0824C40.7636 15.9971 40.9598 15.9073 41.1648 15.8198C41.5705 15.6344 41.9791 15.4688 42.3906 15.3229C42.9418 15.1113 43.4988 14.9099 44.0617 14.7187L44.4542 14.5896C44.8091 14.4735 45.164 14.3707 45.5256 14.259C45.735 14.1912 45.9489 14.1342 46.1627 14.0751C46.3766 14.016 46.5904 13.9547 46.8065 13.9L48.6518 13.4425L48.46 13.0047ZM24.8462 30.2079L24.8285 30.3786L27.7982 27.2878C26.7171 28.1594 25.7281 29.1378 24.8462 30.2079ZM60.8963 43.2673V72.8622C60.8974 78.2463 58.7732 83.4163 54.9793 87.2631C51.1854 91.1099 46.024 93.3269 40.6027 93.4386H40.4219C35.2033 93.3335 30.2179 91.2722 26.4666 87.6685C26.7826 87.5021 27.0956 87.3306 27.4058 87.1541C28.4052 86.5864 29.3767 85.9749 30.3203 85.3197C31.112 87.3877 32.5021 89.177 34.3157 90.4624C36.1293 91.7477 38.2852 92.4718 40.5123 92.5433C46.553 92.3857 51.4494 87.3752 51.4494 81.3204V34.8047C51.4442 32.9346 50.9705 31.0952 50.0711 29.4521C49.1717 27.809 47.8748 26.4138 46.2972 25.3921V24.0503C46.2972 23.9036 46.2972 23.7592 46.2972 23.6125C50.521 24.9186 54.2138 27.5307 56.837 31.0677C59.4601 34.6047 60.8762 38.8814 60.8787 43.2739L60.8963 43.2673ZM26.7576 80.6988C24.9189 81.084 22.9943 80.6462 21.4422 80.053C20.5781 77.7565 20.1353 75.3248 20.1349 72.8732V43.2717C20.1382 40.2105 20.8276 37.1884 22.1531 34.4246C23.4786 31.6607 25.4069 29.2244 27.7982 27.2922C28.1465 27.012 28.5051 26.7413 28.874 26.4801C31.5044 24.62 34.5391 23.4014 37.7322 22.923C37.4838 23.3608 37.2458 23.7986 37.0179 24.2364C34.8395 25.033 32.959 26.4728 31.6292 28.3621C30.2994 30.2515 29.5841 32.4998 29.5795 34.8047V79.0461C28.8445 79.8852 27.8537 80.4632 26.7576 80.6922V80.6988ZM46.4714 28.8726C46.5045 28.2509 46.5816 27.5855 46.672 26.9419C46.7624 26.2984 46.8726 25.6439 47.0049 25.0003C47.7816 21.1095 49.1564 17.3604 51.0813 13.8847C51.7309 12.73 52.4411 11.6099 53.2087 10.529C53.9865 9.45164 54.8226 8.41693 55.7132 7.42941C57.5173 5.46198 59.5434 3.70728 61.7517 2.19995C59.4841 3.63459 57.3906 5.32395 55.5126 7.2346C54.5757 8.19955 53.6925 9.21455 52.867 10.2751C49.6114 14.5917 47.2912 19.5308 46.0525 24.7814C45.8938 25.4381 45.7615 26.0948 45.6424 26.7668C45.5234 27.4388 45.422 28.0933 45.3625 28.7982L46.4714 28.8726ZM55.5104 13.2696C55.0637 12.8253 54.5331 12.4731 53.9489 12.233C53.3648 11.993 52.7386 11.8699 52.1064 11.8708C52.1099 13.1363 52.6188 14.3487 53.5215 15.2421C54.4241 16.1354 55.6468 16.6368 56.9213 16.6362C56.9214 16.0096 56.797 15.3892 56.5553 14.8103C56.3136 14.2315 55.9592 13.7057 55.5126 13.263L55.5104 13.2696ZM51.3414 8.31814C51.232 7.93738 51.0476 7.58194 50.799 7.27235C50.5504 6.96276 50.2425 6.70515 49.893 6.51442C49.6999 6.86076 49.5775 7.24148 49.5328 7.63482C49.488 8.02815 49.5218 8.42639 49.6321 8.80677C49.7425 9.18714 49.9273 9.54218 50.1759 9.85159C50.4246 10.161 50.7322 10.4187 51.0813 10.61C51.2748 10.2639 51.3975 9.88325 51.4421 9.48989C51.4868 9.09654 51.4525 8.6983 51.3414 8.31814ZM56.6325 9.3579C56.1977 9.20655 55.737 9.14199 55.2769 9.16791C54.8169 9.19383 54.3665 9.30972 53.9517 9.50894C54.1518 9.92195 54.4319 10.2917 54.7762 10.5971C55.1204 10.9024 55.5219 11.1374 55.9576 11.2884C56.3934 11.4395 56.8549 11.5037 57.3157 11.4775C57.7766 11.4512 58.2276 11.3349 58.6432 11.1353C58.4431 10.7225 58.1629 10.3529 57.8186 10.0479C57.4743 9.74288 57.0728 9.50839 56.6369 9.3579H56.6325ZM60.1357 6.44C59.7006 6.28811 59.2395 6.22326 58.779 6.24918C58.3185 6.27511 57.8677 6.39129 57.4527 6.59104C57.8568 7.42347 58.5773 8.06245 59.4559 8.36744C60.3344 8.67244 61.299 8.61849 62.1375 8.21745C61.9387 7.80529 61.6599 7.43613 61.3172 7.13113C60.9744 6.82612 60.5744 6.59126 60.1401 6.44H60.1357ZM54.1832 5.54471C54.2309 5.15188 54.1999 4.75356 54.0921 4.37264C53.9843 3.99173 53.8017 3.63573 53.5549 3.32509C53.2412 3.56944 52.9792 3.87282 52.7838 4.21785C52.5884 4.56289 52.4635 4.9428 52.4162 5.33584C52.3689 5.72888 52.4002 6.12732 52.5082 6.50835C52.6161 6.88938 52.7988 7.24552 53.0456 7.55638C53.3601 7.31238 53.623 7.00903 53.8189 6.66379C54.0149 6.31854 54.1402 5.93822 54.1876 5.54471H54.1832ZM56.8287 3.49364C56.8642 3.20373 56.8413 2.90972 56.7615 2.62866C56.6816 2.34759 56.5464 2.08506 56.3636 1.85628C56.1331 2.03736 55.9408 2.26174 55.7976 2.51662C55.6545 2.7715 55.5633 3.05188 55.5293 3.34175C55.4954 3.63162 55.5192 3.92529 55.5996 4.20601C55.6799 4.48672 55.8152 4.74896 55.9976 4.97776C56.4637 4.61587 56.7665 4.0854 56.8398 3.50239L56.8287 3.49364ZM64.4501 1.8935C64.8093 1.72019 65.1305 1.47824 65.3953 1.1815C65.6601 0.884757 65.8633 0.539061 65.9934 0.164207C65.6163 0.0354998 65.2174 -0.0181845 64.8194 0.0062204C64.4214 0.0306253 64.0321 0.132641 63.6739 0.306441C63.3156 0.480241 62.9953 0.722419 62.7313 1.01914C62.4673 1.31587 62.2648 1.66132 62.1353 2.03578C62.5132 2.1657 62.9134 2.22001 63.3126 2.19559C63.7118 2.17117 64.1021 2.0685 64.4612 1.8935H64.4501ZM63.8064 88.1391C63.5242 88.6973 63.1869 89.2774 62.8452 89.8312C62.5035 90.385 62.1419 90.9432 61.7605 91.4795C61.0082 92.5631 60.1987 93.6065 59.3354 94.6053C56.7503 97.6394 53.6874 100.238 50.2656 102.3C49.1241 102.979 47.9465 103.596 46.7382 104.149C44.2939 105.24 41.7315 106.048 39.1013 106.557C41.7582 106.138 44.3572 105.415 46.8462 104.401C48.0908 103.889 49.3059 103.308 50.486 102.663C51.6632 102.006 52.8045 101.288 53.9054 100.511C57.2084 98.1487 60.1274 95.2977 62.5608 92.0574C62.9686 91.5189 63.3567 90.9629 63.7336 90.4003C64.1106 89.8378 64.4656 89.2686 64.8073 88.6491L63.8064 88.1391ZM49.2558 98.8651C49.4871 99.4488 49.8322 99.9814 50.2715 100.432C50.7108 100.883 51.2355 101.243 51.8154 101.492C52.3201 100.332 52.3413 99.0207 51.8743 97.8453C51.4074 96.6699 50.4904 95.726 49.3242 95.2204C49.0712 95.7962 48.9353 96.416 48.9243 97.0441C48.9134 97.6722 49.0275 98.2962 49.2603 98.8804L49.2558 98.8651ZM51.0989 105.071C51.0473 105.464 51.0743 105.863 51.1783 106.245C51.2824 106.627 51.4614 106.986 51.7052 107.299C52.0215 107.057 52.2867 106.756 52.4853 106.412C52.684 106.068 52.8123 105.688 52.8629 105.295C52.9135 104.901 52.8854 104.502 52.7802 104.12C52.6749 103.737 52.4947 103.379 52.2497 103.066C51.9347 103.309 51.6709 103.611 51.4734 103.955C51.2759 104.299 51.1487 104.678 51.0989 105.071ZM46.661 102.006C46.9989 102.318 47.3955 102.56 47.828 102.718C48.2604 102.877 48.7202 102.949 49.1809 102.93C49.1408 102.009 48.7348 101.141 48.0518 100.517C47.3687 99.8925 46.4644 99.5622 45.5366 99.5984C45.5757 100.517 45.98 101.383 46.661 102.006ZM42.276 103.298C42.614 103.609 43.0107 103.85 43.4432 104.008C43.8757 104.167 44.3354 104.238 44.7959 104.219C44.778 103.762 44.6696 103.313 44.4769 102.898C44.2841 102.482 44.0109 102.108 43.6727 101.798C43.3344 101.487 42.9379 101.246 42.5057 101.087C42.0736 100.929 41.6142 100.857 41.1538 100.875C41.1698 101.333 41.2773 101.785 41.4699 102.202C41.6625 102.619 41.9364 102.995 42.276 103.307V103.298ZM47.3775 106.474C47.1755 106.815 47.0437 107.193 46.9895 107.585C46.9354 107.978 46.9601 108.377 47.0622 108.759C47.8406 108.556 48.506 108.054 48.9119 107.364C49.3179 106.674 49.4313 105.853 49.2272 105.08C48.8404 105.18 48.4776 105.355 48.1601 105.596C47.8425 105.837 47.5764 106.139 47.3775 106.483V106.474ZM44.1213 107.304C43.9725 107.556 43.8753 107.835 43.8352 108.124C43.7951 108.414 43.8129 108.709 43.8876 108.991C44.1721 108.917 44.4392 108.789 44.6736 108.612C44.908 108.436 45.105 108.215 45.2535 107.963C45.4019 107.711 45.4989 107.432 45.5387 107.143C45.5786 106.854 45.5607 106.559 45.4859 106.277C45.2008 106.351 44.9335 106.481 44.6992 106.659C44.465 106.837 44.2686 107.059 44.1213 107.312V107.304ZM36.4888 105.756C36.0903 105.773 35.6991 105.867 35.3377 106.035C34.9763 106.202 34.652 106.439 34.3834 106.732C34.9773 107.272 35.7626 107.555 36.5667 107.52C37.3708 107.484 38.1278 107.133 38.6714 106.544C38.3774 106.278 38.0332 106.071 37.6586 105.938C37.284 105.804 36.8864 105.745 36.4888 105.765V105.756Z" fill="#00442B"/>
</svg>
